<svg xmlns="http://www.w3.org/2000/svg" width="24" height="24" viewBox="0 0 24 24">
  <g id="Group_155135" data-name="Group 155135" transform="translate(-279 30)">
    <rect id="Rectangle_112003" data-name="Rectangle 112003" width="24" height="24" transform="translate(279 -30)" fill="#fff" opacity="0"/>
    <path id="Path_155441" data-name="Path 155441" d="M22,12l-6.75,6.75a7.425,7.425,0,0,1-10.5,0h0a7.425,7.425,0,0,1,0-10.5L5,8l.5-.5M13,7,8.25,11.75a2.475,2.475,0,0,0,0,3.5h0a2.475,2.475,0,0,0,3.5,0L16.5,10.5a4.95,4.95,0,0,0,0-7h0a4.95,4.95,0,0,0-7,0L9,4l-.5.5" transform="translate(278.924 -29.55)" fill="none" stroke="#3734a9" stroke-linecap="round" stroke-linejoin="round" stroke-width="1.5"/>
  </g>
</svg>
