<svg width="32" height="32" viewBox="0 0 32 32" fill="none" xmlns="http://www.w3.org/2000/svg">
<g clip-path="url(#clip0_951_640)">
<path d="M13.3333 4H5.33333C4.97971 4 4.64057 4.14048 4.39052 4.39052C4.14048 4.64057 4 4.97971 4 5.33333V13.3333C4 13.687 4.14048 14.0261 4.39052 14.2761C4.64057 14.5262 4.97971 14.6667 5.33333 14.6667H13.3333C13.687 14.6667 14.0261 14.5262 14.2761 14.2761C14.5262 14.0261 14.6667 13.687 14.6667 13.3333V5.33333C14.6667 4.97971 14.5262 4.64057 14.2761 4.39052C14.0261 4.14048 13.687 4 13.3333 4ZM26.6667 4H18.6667C18.313 4 17.9739 4.14048 17.7239 4.39052C17.4738 4.64057 17.3333 4.97971 17.3333 5.33333V13.3333C17.3333 13.687 17.4738 14.0261 17.7239 14.2761C17.9739 14.5262 18.313 14.6667 18.6667 14.6667H26.6667C27.0203 14.6667 27.3594 14.5262 27.6095 14.2761C27.8595 14.0261 28 13.687 28 13.3333V5.33333C28 4.97971 27.8595 4.64057 27.6095 4.39052C27.3594 4.14048 27.0203 4 26.6667 4ZM13.3333 17.3333H5.33333C4.97971 17.3333 4.64057 17.4738 4.39052 17.7239C4.14048 17.9739 4 18.313 4 18.6667V26.6667C4 27.0203 4.14048 27.3594 4.39052 27.6095C4.64057 27.8595 4.97971 28 5.33333 28H13.3333C13.687 28 14.0261 27.8595 14.2761 27.6095C14.5262 27.3594 14.6667 27.0203 14.6667 26.6667V18.6667C14.6667 18.313 14.5262 17.9739 14.2761 17.7239C14.0261 17.4738 13.687 17.3333 13.3333 17.3333ZM22.6667 17.3333C23.7101 17.3333 24.7307 17.6394 25.6019 18.2137C26.4731 18.788 27.1568 19.6053 27.5681 20.5642C27.9795 21.5232 28.1005 22.5818 27.9161 23.6089C27.7318 24.6359 27.2502 25.5863 26.531 26.3424C25.8119 27.0985 24.8867 27.627 23.8701 27.8624C22.8536 28.0979 21.7903 28.03 20.8119 27.6671C19.8336 27.3042 18.9832 26.6623 18.3661 25.8209C17.7489 24.9795 17.3922 23.9755 17.34 22.9333L17.3333 22.6667L17.34 22.4C17.4084 21.0334 17.9995 19.7453 18.9909 18.8023C19.9824 17.8592 21.2983 17.3333 22.6667 17.3333Z" fill="white"/>
</g>
<defs>
<clipPath id="clip0_951_640">
<rect width="32" height="32" fill="white"/>
</clipPath>
</defs>
</svg>
