<svg width="32" height="32" viewBox="0 0 32 32" fill="none" xmlns="http://www.w3.org/2000/svg">
<path d="M5.33325 5.33337H13.3333V13.3334H5.33325V5.33337ZM18.6666 5.33337H26.6666V13.3334H18.6666V5.33337ZM5.33325 18.6667H13.3333V26.6667H5.33325V18.6667ZM18.6666 22.6667C18.6666 23.7276 19.088 24.745 19.8382 25.4951C20.5883 26.2453 21.6057 26.6667 22.6666 26.6667C23.7275 26.6667 24.7449 26.2453 25.495 25.4951C26.2452 24.745 26.6666 23.7276 26.6666 22.6667C26.6666 21.6058 26.2452 20.5884 25.495 19.8383C24.7449 19.0881 23.7275 18.6667 22.6666 18.6667C21.6057 18.6667 20.5883 19.0881 19.8382 19.8383C19.088 20.5884 18.6666 21.6058 18.6666 22.6667Z" stroke="white" stroke-width="2" stroke-linecap="round" stroke-linejoin="round"/>
</svg>
