<svg width="26" height="25" viewBox="0 0 26 25" fill="none" xmlns="http://www.w3.org/2000/svg">
<path d="M22.1999 25L14.8999 17.7L17.6999 14.9L24.9999 22.2L22.1999 25ZM3.79992 25L0.999919 22.2L10.1999 13L7.93325 10.7333L6.99992 11.6666L5.29992 9.96664V12.7L4.36659 13.6333L0.333252 9.59998L1.26659 8.66664H3.99992L2.33325 6.99998L7.06659 2.26664C7.51103 1.8222 7.98881 1.49998 8.49992 1.29998C9.01103 1.09998 9.53325 0.999978 10.0666 0.999978C10.5999 0.999978 11.1221 1.09998 11.6333 1.29998C12.1444 1.49998 12.6221 1.8222 13.0666 2.26664L9.99992 5.33331L11.6666 6.99998L10.7333 7.93331L12.9999 10.2L15.9999 7.19998C15.911 6.95553 15.8388 6.69998 15.7833 6.43331C15.7277 6.16664 15.6999 5.89998 15.6999 5.63331C15.6999 4.3222 16.1499 3.21664 17.0499 2.31664C17.9499 1.41664 19.0555 0.966644 20.3666 0.966644C20.6999 0.966644 21.0166 0.999978 21.3166 1.06664C21.6166 1.13331 21.9221 1.23331 22.2333 1.36664L18.9333 4.66664L21.3333 7.06664L24.6333 3.76664C24.7888 4.07776 24.8944 4.38331 24.9499 4.68331C25.0055 4.98331 25.0333 5.29998 25.0333 5.63331C25.0333 6.94442 24.5833 8.04998 23.6833 8.94998C22.7833 9.84998 21.6777 10.3 20.3666 10.3C20.0999 10.3 19.8333 10.2778 19.5666 10.2333C19.2999 10.1889 19.0444 10.1111 18.7999 9.99998L3.79992 25Z" fill="white"/>
</svg>
