<svg width="20" height="20" viewBox="0 0 20 20" fill="none" xmlns="http://www.w3.org/2000/svg">
<path d="M5.72 14.456L7.481 13.948L18.084 3.21803C18.1676 3.13233 18.2142 3.01716 18.2136 2.89741C18.2131 2.77767 18.1654 2.66295 18.081 2.57803L17.446 1.93603C17.405 1.89387 17.3559 1.8603 17.3018 1.83729C17.2477 1.81427 17.1895 1.80228 17.1306 1.802C17.0718 1.80172 17.0135 1.81316 16.9591 1.83566C16.9048 1.85816 16.8554 1.89126 16.814 1.93303L6.239 12.635L5.72 14.456ZM18.703 0.66403L19.338 1.30703C20.214 2.19403 20.222 3.62503 19.354 4.50303L8.428 15.561L4.664 16.645C4.4342 16.7094 4.18826 16.6799 3.98016 16.5631C3.77206 16.4463 3.6188 16.2517 3.554 16.022C3.50578 15.8569 3.50509 15.6815 3.552 15.516L4.647 11.676L15.544 0.64703C15.7512 0.438387 15.9979 0.273091 16.2696 0.160782C16.5414 0.0484724 16.8328 -0.00860202 17.1269 -0.0071127C17.4209 -0.00562338 17.7117 0.0543999 17.9823 0.169456C18.2529 0.284513 18.4979 0.453299 18.703 0.66403ZM7.184 1.81703C7.68 1.81703 8.082 2.22403 8.082 2.72603C8.08279 2.8447 8.06018 2.96236 8.01547 3.07228C7.97076 3.18221 7.90481 3.28224 7.82141 3.36666C7.73801 3.45108 7.63879 3.51824 7.52942 3.56429C7.42004 3.61034 7.30267 3.63438 7.184 3.63503H3.592C2.6 3.63503 1.796 4.44903 1.796 5.45203V16.358C1.796 17.362 2.6 18.176 3.592 18.176H14.368C15.36 18.176 16.165 17.362 16.165 16.358V12.723C16.165 12.221 16.567 11.814 17.063 11.814C17.559 11.814 17.961 12.221 17.961 12.724V16.358C17.961 18.366 16.352 19.994 14.368 19.994H3.592C1.608 19.994 0 18.366 0 16.358V5.45203C0 3.44503 1.608 1.81703 3.592 1.81703H7.184Z" fill="black" fill-opacity="0.4"/>
</svg>
