<svg xmlns="http://www.w3.org/2000/svg" width="46" height="46" viewBox="0 0 46 46">
  <g id="Group_132002" data-name="Group 132002" transform="translate(-137.529 -364.496)">
    <g id="Rectangle_110323" data-name="Rectangle 110323" transform="translate(137.529 364.496)" fill="#fff" stroke="#707070" stroke-width="1" opacity="0">
      <rect width="46" height="46" stroke="none"/>
      <rect x="0.5" y="0.5" width="45" height="45" fill="none"/>
    </g>
    <g id="bankrupt" transform="translate(139.323 366.32)">
      <path id="rect816" d="M13.31,7a6.31,6.31,0,1,0,0,12.62H46.543V46.543H13.31a3.75,3.75,0,0,1-3.786-3.786V20.882a1.262,1.262,0,0,0-2.524,0V42.757a6.324,6.324,0,0,0,6.31,6.31h34.5A1.262,1.262,0,0,0,49.072,47.8V18.358A1.262,1.262,0,0,0,47.806,17.1H13.31a3.786,3.786,0,0,1,0-7.572H41.5v4.627a1.262,1.262,0,1,0,2.524,0V8.262A1.262,1.262,0,0,0,42.757,7Z" transform="translate(-7 -7)" fill="#8d98aa"/>
      <path id="path923" d="M30.587,42a11.743,11.743,0,0,0-6.939,2.261A1.262,1.262,0,1,0,25.134,46.3a9.263,9.263,0,0,1,10.9,0,1.262,1.262,0,1,0,1.487-2.038A11.743,11.743,0,0,0,30.587,42Z" transform="translate(-9.553 -12.553)" fill="#8d98aa"/>
      <path id="path1192" d="M37.073,31.1a1.262,1.262,0,0,0,.027,1.784l.6.6-.6.6a1.262,1.262,0,1,0,1.785,1.785l.6-.6.6.6a1.262,1.262,0,0,0,1.785-1.785l-.6-.6.6-.6A1.262,1.262,0,1,0,40.074,31.1l-.6.6-.6-.595a1.262,1.262,0,0,0-1.811,0Z" transform="translate(-11.715 -10.763)" fill="#8d98aa"/>
      <path id="path1209" d="M21.073,31.1a1.262,1.262,0,0,0,.027,1.784l.595.6-.595.6a1.262,1.262,0,0,0,1.785,1.785l.595-.6.595.6a1.262,1.262,0,0,0,1.785-1.785l-.6-.595.595-.6A1.262,1.262,0,1,0,24.074,31.1l-.595.6-.595-.595a1.262,1.262,0,0,0-1.811,0Z" transform="translate(-9.176 -10.763)" fill="#8d98aa"/>
    </g>
  </g>
</svg>
