<svg xmlns="http://www.w3.org/2000/svg" width="19.917" height="19.918" viewBox="0 0 19.917 19.918">
  <path id="facebook-square-brands" d="M17.783,32H2.134A2.134,2.134,0,0,0,0,34.134v15.65a2.134,2.134,0,0,0,2.134,2.134h6.1V45.146h-2.8V41.959h2.8V39.53c0-2.763,1.645-4.289,4.164-4.289a16.968,16.968,0,0,1,2.468.215v2.712h-1.39a1.594,1.594,0,0,0-1.8,1.722v2.07h3.058l-.489,3.187H11.681v6.772h6.1a2.134,2.134,0,0,0,2.134-2.134V34.134A2.134,2.134,0,0,0,17.783,32Z" transform="translate(0 -32)" fill="#3b5998"/>
</svg>
