<svg width="39" height="36" viewBox="0 0 39 36" fill="none" xmlns="http://www.w3.org/2000/svg">
<g filter="url(#filter0_d_1167_8)">
<path d="M34.3228 13.9739C34.3228 14.9114 33.5416 15.6458 32.6562 15.6458H30.9895L31.026 23.9844C31.026 24.1302 31.0155 24.2656 30.9999 24.4062V25.25C30.9999 26.401 30.0676 27.3333 28.9166 27.3333H28.0833C28.026 27.3333 27.9687 27.2864 27.9114 27.3281C27.8385 27.2864 27.7655 27.3333 27.6926 27.3333H24.7499C23.5989 27.3333 22.6666 26.401 22.6666 25.25V20.6667C22.6666 19.7448 21.9218 19 20.9999 19H17.6666C16.7447 19 15.9999 19.7448 15.9999 20.6667V25.25C15.9999 26.401 15.0676 27.3333 13.9166 27.3333H11.0051C10.927 27.3333 10.8489 27.3281 10.7708 27.3229C10.7083 27.3281 10.6458 27.3333 10.5833 27.3333H9.74992C8.5994 27.3333 7.66659 26.401 7.66659 25.25V19.4167C7.66659 19.3698 7.66815 19.3177 7.67127 19.2708V15.6458H6.00252C5.06346 15.6458 4.33325 14.9114 4.33325 13.9739C4.33325 13.5052 4.48971 13.0885 4.85461 12.7239L18.2083 1.08416C18.5728 0.718844 18.9895 0.666656 19.3541 0.666656C19.7187 0.666656 20.1353 0.771031 20.453 1.03197L33.7499 12.7239C34.1666 13.0885 34.3801 13.5052 34.3228 13.9739Z" fill="white"/>
</g>
<defs>
<filter id="filter0_d_1167_8" x="0.333252" y="0.666656" width="37.9988" height="34.6667" filterUnits="userSpaceOnUse" color-interpolation-filters="sRGB">
<feFlood flood-opacity="0" result="BackgroundImageFix"/>
<feColorMatrix in="SourceAlpha" type="matrix" values="0 0 0 0 0 0 0 0 0 0 0 0 0 0 0 0 0 0 127 0" result="hardAlpha"/>
<feOffset dy="4"/>
<feGaussianBlur stdDeviation="2"/>
<feComposite in2="hardAlpha" operator="out"/>
<feColorMatrix type="matrix" values="0 0 0 0 0 0 0 0 0 0 0 0 0 0 0 0 0 0 0.25 0"/>
<feBlend mode="normal" in2="BackgroundImageFix" result="effect1_dropShadow_1167_8"/>
<feBlend mode="normal" in="SourceGraphic" in2="effect1_dropShadow_1167_8" result="shape"/>
</filter>
</defs>
</svg>
