<svg width="31" height="28" viewBox="0 0 31 28" fill="none" xmlns="http://www.w3.org/2000/svg">
<path d="M30.3228 13.9739C30.3228 14.9114 29.5416 15.6458 28.6562 15.6458H26.9895L27.026 23.9844C27.026 24.1302 27.0155 24.2656 26.9999 24.4062V25.25C26.9999 26.401 26.0676 27.3333 24.9166 27.3333H24.0833C24.026 27.3333 23.9687 27.2864 23.9114 27.3281C23.8385 27.2864 23.7655 27.3333 23.6926 27.3333H20.7499C19.5989 27.3333 18.6666 26.401 18.6666 25.25V20.6667C18.6666 19.7448 17.9218 19 16.9999 19H13.6666C12.7447 19 11.9999 19.7448 11.9999 20.6667V25.25C11.9999 26.401 11.0676 27.3333 9.91659 27.3333H7.00513C6.927 27.3333 6.84888 27.3281 6.77075 27.3229C6.70825 27.3281 6.64575 27.3333 6.58325 27.3333H5.74992C4.5994 27.3333 3.66659 26.401 3.66659 25.25V19.4167C3.66659 19.3698 3.66815 19.3177 3.67127 19.2708V15.6458H2.00252C1.06346 15.6458 0.333252 14.9114 0.333252 13.9739C0.333252 13.5052 0.48971 13.0885 0.854606 12.7239L14.2083 1.08416C14.5728 0.718844 14.9895 0.666656 15.3541 0.666656C15.7187 0.666656 16.1353 0.771031 16.453 1.03197L29.7499 12.7239C30.1666 13.0885 30.3801 13.5052 30.3228 13.9739Z" fill="white"/>
</svg>
