<svg xmlns="http://www.w3.org/2000/svg" width="19.729" height="19.725" viewBox="0 0 19.729 19.725">
  <path id="instagram" d="M9.792,36.63a5.057,5.057,0,1,0,5.057,5.057A5.049,5.049,0,0,0,9.792,36.63Zm0,8.345a3.288,3.288,0,1,1,3.288-3.288A3.294,3.294,0,0,1,9.792,44.976Zm6.444-8.552a1.18,1.18,0,1,1-1.18-1.18A1.177,1.177,0,0,1,16.236,36.424Zm3.35,1.2a5.838,5.838,0,0,0-1.593-4.133,5.876,5.876,0,0,0-4.133-1.593c-1.629-.092-6.51-.092-8.138,0a5.867,5.867,0,0,0-4.133,1.589A5.857,5.857,0,0,0-.006,37.616c-.092,1.629-.092,6.51,0,8.138a5.838,5.838,0,0,0,1.593,4.133,5.883,5.883,0,0,0,4.133,1.593c1.629.092,6.51.092,8.138,0a5.837,5.837,0,0,0,4.133-1.593,5.876,5.876,0,0,0,1.593-4.133C19.678,44.126,19.678,39.249,19.585,37.621Zm-2.1,9.881a3.329,3.329,0,0,1-1.875,1.875c-1.3.515-4.379.4-5.814.4s-4.52.114-5.814-.4A3.329,3.329,0,0,1,2.1,47.5c-.515-1.3-.4-4.38-.4-5.814s-.114-4.52.4-5.814A3.329,3.329,0,0,1,3.978,34c1.3-.515,4.379-.4,5.814-.4s4.52-.114,5.814.4a3.329,3.329,0,0,1,1.875,1.875c.515,1.3.4,4.38.4,5.814S18,46.208,17.481,47.5Z" transform="translate(0.075 -31.825)" fill="#6c28b3"/>
</svg>
