<svg width="32" height="32" viewBox="0 0 32 32" fill="none" xmlns="http://www.w3.org/2000/svg">
<g clip-path="url(#clip0_2225_1125)">
<path d="M28.25 7.5H23.5C23.5 3.35787 20.1421 0 16 0C11.8579 0 8.5 3.35787 8.5 7.5H3.75C1.67894 7.5 0 9.17894 0 11.25V28.25C0 30.3211 1.67894 32 3.75 32H28.25C30.3211 32 32 30.3211 32 28.25V11.25C32 9.17894 30.3211 7.5 28.25 7.5ZM16 3.75C18.0711 3.75 19.75 5.42894 19.75 7.5H12.25C12.25 5.42894 13.9289 3.75 16 3.75ZM25.125 16.25V17.5C25.125 18.5356 24.2856 19.375 23.25 19.375C22.2144 19.375 21.375 18.5356 21.375 17.5V16.25H10.625V17.5C10.625 18.5356 9.78556 19.375 8.75 19.375C7.71444 19.375 6.875 18.5356 6.875 17.5V16.25C5.83944 16.25 5 15.4106 5 14.375C5 13.3394 5.83944 12.5 6.875 12.5H25.125C26.1606 12.5 27 13.3394 27 14.375C27 15.4106 26.1606 16.25 25.125 16.25Z" fill="white"/>
</g>
<defs>
<clipPath id="clip0_2225_1125">
<rect width="32" height="32" fill="white"/>
</clipPath>
</defs>
</svg>
