<svg width="28" height="34" viewBox="0 0 28 34" fill="none" xmlns="http://www.w3.org/2000/svg">
<path d="M14 2C11.3478 2 8.8043 3.05357 6.92893 4.92893C5.05357 6.8043 4 9.34784 4 12C4 14.256 5.34 16.888 7.22 19.42C9.072 21.912 11.314 24.14 12.856 25.554C13.1657 25.8452 13.5749 26.0074 14 26.0074C14.4251 26.0074 14.8343 25.8452 15.144 25.554C16.684 24.138 18.928 21.914 20.78 19.42C22.66 16.888 24 14.256 24 12C24 9.34784 22.9464 6.8043 21.0711 4.92893C19.1957 3.05357 16.6522 2 14 2ZM2 12C2 8.8174 3.26428 5.76515 5.51472 3.51472C7.76516 1.26428 10.8174 0 14 0C17.1826 0 20.2348 1.26428 22.4853 3.51472C24.7357 5.76515 26 8.8174 26 12C26 14.936 24.314 18.014 22.386 20.612C20.426 23.25 18.082 25.572 16.496 27.026C15.8173 27.6556 14.9258 28.0055 14 28.0055C13.0742 28.0055 12.1827 27.6556 11.504 27.026C9.918 25.572 7.572 23.25 5.614 20.612C3.686 18.014 2 14.936 2 12ZM14 9C13.2044 9 12.4413 9.31607 11.8787 9.87868C11.3161 10.4413 11 11.2044 11 12C11 12.7956 11.3161 13.5587 11.8787 14.1213C12.4413 14.6839 13.2044 15 14 15C14.7956 15 15.5587 14.6839 16.1213 14.1213C16.6839 13.5587 17 12.7956 17 12C17 11.2044 16.6839 10.4413 16.1213 9.87868C15.5587 9.31607 14.7956 9 14 9ZM9 12C9 10.6739 9.52678 9.40215 10.4645 8.46447C11.4021 7.52678 12.6739 7 14 7C15.3261 7 16.5979 7.52678 17.5355 8.46447C18.4732 9.40215 19 10.6739 19 12C19 13.3261 18.4732 14.5979 17.5355 15.5355C16.5979 16.4732 15.3261 17 14 17C12.6739 17 11.4021 16.4732 10.4645 15.5355C9.52678 14.5979 9 13.3261 9 12ZM22.84 23.276C22.3768 23.8382 21.9 24.389 21.41 24.928C21.918 25.072 22.394 25.228 22.834 25.398C23.942 25.824 24.772 26.308 25.306 26.794C25.84 27.28 26 27.688 26 28C26 28.312 25.84 28.72 25.306 29.206C24.772 29.692 23.942 30.176 22.834 30.602C20.622 31.454 17.5 32.002 14 32.002C10.5 32.002 7.378 31.454 5.166 30.602C4.058 30.176 3.228 29.692 2.694 29.206C2.16 28.72 2 28.312 2 28C2 27.688 2.16 27.28 2.694 26.794C3.228 26.308 4.058 25.824 5.166 25.398C5.63323 25.2197 6.1084 25.0628 6.59 24.928C6.09999 24.389 5.62318 23.8382 5.16 23.276C4.92081 23.3561 4.68342 23.4414 4.448 23.532C3.206 24.01 2.13 24.604 1.348 25.314C0.568 26.024 0 26.932 0 28C0 29.07 0.568 29.976 1.348 30.686C2.13 31.396 3.206 31.99 4.448 32.47C6.942 33.43 10.32 34 14 34C17.68 34 21.058 33.428 23.552 32.47C24.794 31.99 25.87 31.396 26.652 30.686C27.432 29.976 28 29.07 28 28C28 26.932 27.432 26.024 26.652 25.314C25.87 24.604 24.794 24.01 23.552 23.532C23.3166 23.4414 23.0792 23.3561 22.84 23.276Z" fill="#EB3741"/>
</svg>
