<svg width="18" height="20" viewBox="0 0 18 20" fill="none" xmlns="http://www.w3.org/2000/svg">
<path d="M12.5999 8.8C12.5999 9.75478 12.2206 10.6705 11.5455 11.3456C10.8703 12.0207 9.95467 12.4 8.99989 12.4C8.04511 12.4 7.12943 12.0207 6.4543 11.3456C5.77917 10.6705 5.39989 9.75478 5.39989 8.8C5.39989 7.84522 5.77917 6.92955 6.4543 6.25441C7.12943 5.57928 8.04511 5.2 8.99989 5.2C9.95467 5.2 10.8703 5.57928 11.5455 6.25441C12.2206 6.92955 12.5999 7.84522 12.5999 8.8ZM11.3999 8.8C11.3999 8.16348 11.147 7.55303 10.6969 7.10294C10.2469 6.65285 9.63641 6.4 8.99989 6.4C8.36337 6.4 7.75292 6.65285 7.30283 7.10294C6.85274 7.55303 6.59989 8.16348 6.59989 8.8C6.59989 9.43652 6.85274 10.047 7.30283 10.4971C7.75292 10.9471 8.36337 11.2 8.99989 11.2C9.63641 11.2 10.2469 10.9471 10.6969 10.4971C11.147 10.047 11.3999 9.43652 11.3999 8.8ZM14.9399 14.746C16.5154 13.1697 17.4004 11.0323 17.4004 8.8036C17.4004 6.57494 16.5154 4.4375 14.9399 2.8612C14.16 2.08081 13.234 1.46174 12.2148 1.03937C11.1956 0.616995 10.1032 0.399597 8.99989 0.399597C7.89662 0.399597 6.80417 0.616995 5.78496 1.03937C4.76575 1.46174 3.83975 2.08081 3.05989 2.8612C1.4844 4.4375 0.599365 6.57494 0.599365 8.8036C0.599365 11.0323 1.4844 13.1697 3.05989 14.746L4.88509 16.5448L7.33669 18.9268L7.49629 19.0684C8.42629 19.822 9.78829 19.774 10.6643 18.9268L13.5863 16.0828L14.9399 14.746ZM3.90589 3.7072C4.57473 3.03805 5.36886 2.50724 6.24291 2.14509C7.11695 1.78293 8.05378 1.59653 8.99989 1.59653C9.94599 1.59653 10.8828 1.78293 11.7569 2.14509C12.6309 2.50724 13.425 3.03805 14.0939 3.7072C15.4075 5.02174 16.1629 6.79278 16.2022 8.65078C16.2416 10.5088 15.5619 12.3102 14.3051 13.6792L14.0939 13.9L12.5087 15.4648L9.83269 18.0676L9.71989 18.1636C9.51228 18.3198 9.25948 18.4041 8.99969 18.4039C8.7399 18.4037 8.48724 18.3189 8.27989 18.1624L8.16829 18.0664L4.59229 14.5804L3.90589 13.9L3.69469 13.6804C2.43786 12.3114 1.75822 10.51 1.79757 8.65198C1.83692 6.79398 2.59223 5.02174 3.90589 3.7072Z" fill="black" fill-opacity="0.3"/>
</svg>
