<svg width="19" height="19" viewBox="0 0 19 19" fill="none" xmlns="http://www.w3.org/2000/svg">
<path d="M17.6981 13.1997L13.2713 11.2187C13.0996 11.1444 12.9122 11.1141 12.726 11.1305C12.5397 11.1469 12.3604 11.2094 12.2044 11.3125C12.1919 11.3204 12.18 11.3291 12.1688 11.3387L9.84376 13.3206C9.79202 13.3522 9.7333 13.3705 9.67279 13.3739C9.61228 13.3773 9.55186 13.3658 9.49689 13.3403C7.97439 12.6053 6.39845 11.0415 5.66345 9.53685C5.63745 9.48228 5.62538 9.42212 5.62832 9.36175C5.63127 9.30138 5.64914 9.24268 5.68032 9.19091L7.66782 6.82747C7.6772 6.81622 7.68564 6.80403 7.69407 6.79185C7.79681 6.63603 7.85918 6.45711 7.87554 6.27119C7.89191 6.08528 7.86176 5.89821 7.78782 5.72685L5.80314 1.30747C5.70732 1.08364 5.54148 0.896932 5.33051 0.775388C5.11954 0.653844 4.87483 0.604023 4.63314 0.633407C3.45336 0.788957 2.37054 1.36865 1.58694 2.26422C0.803343 3.15979 0.372544 4.30998 0.375011 5.49997C0.375011 12.7375 6.26251 18.625 13.5 18.625C14.69 18.6274 15.8402 18.1966 16.7358 17.413C17.6313 16.6294 18.211 15.5466 18.3666 14.3668C18.3957 14.1263 18.3464 13.8827 18.226 13.6724C18.1056 13.462 17.9204 13.2963 17.6981 13.1997ZM17.625 14.2731C17.4926 15.2722 17.0009 16.1889 16.2417 16.8519C15.4825 17.5148 14.5079 17.8785 13.5 17.875C6.67689 17.875 1.12501 12.3231 1.12501 5.49997C1.12152 4.49211 1.48523 3.51747 2.14813 2.75829C2.81103 1.99911 3.72775 1.50736 4.72689 1.37497C4.74187 1.37404 4.7569 1.37404 4.77189 1.37497C4.84587 1.3756 4.91801 1.3981 4.97923 1.43964C5.04045 1.48118 5.08802 1.5399 5.11595 1.60841L7.09501 6.02778C7.1181 6.0818 7.12818 6.14048 7.12444 6.1991C7.12069 6.25772 7.10322 6.31465 7.07345 6.36528L5.08689 8.72778C5.07751 8.73997 5.06814 8.75122 5.0597 8.76435C4.95386 8.92619 4.89153 9.11259 4.87872 9.30554C4.86591 9.49849 4.90306 9.69149 4.98657 9.86591C5.80126 11.5337 7.48126 13.2015 9.16782 14.0162C9.34343 14.0992 9.53753 14.1353 9.73122 14.121C9.92492 14.1067 10.1116 14.0425 10.2731 13.9347L10.3078 13.9084L12.6356 11.9284C12.6854 11.898 12.7417 11.8798 12.7999 11.8754C12.8581 11.871 12.9165 11.8805 12.9703 11.9031L17.3963 13.8868C17.471 13.9179 17.5336 13.9723 17.5748 14.042C17.616 14.1116 17.6336 14.1927 17.625 14.2731Z" fill="black" fill-opacity="0.3"/>
</svg>
