<svg width="18" height="13" viewBox="0 0 18 13" fill="none" xmlns="http://www.w3.org/2000/svg">
<path fill-rule="evenodd" clip-rule="evenodd" d="M3.28571 0.5H14.7143C15.3205 0.5 15.9019 0.710714 16.3305 1.08579C16.7592 1.46086 17 1.96957 17 2.5V10.5C17 11.0304 16.7592 11.5391 16.3305 11.9142C15.9019 12.2893 15.3205 12.5 14.7143 12.5H3.28571C2.67951 12.5 2.09812 12.2893 1.66947 11.9142C1.24082 11.5391 1 11.0304 1 10.5V2.5C1 1.96957 1.24082 1.46086 1.66947 1.08579C2.09812 0.710714 2.67951 0.5 3.28571 0.5Z" stroke="#B7B7B7" stroke-linecap="round" stroke-linejoin="round"/>
<path d="M3.28564 7.5H8.99993M3.28564 9.5H8.99993M12.4285 2.5H13.5714C13.8745 2.5 14.1652 2.60536 14.3795 2.79289C14.5938 2.98043 14.7142 3.23478 14.7142 3.5V4.5C14.7142 4.76522 14.5938 5.01957 14.3795 5.20711C14.1652 5.39464 13.8745 5.5 13.5714 5.5H12.4285C12.1254 5.5 11.8347 5.39464 11.6204 5.20711C11.4061 5.01957 11.2856 4.76522 11.2856 4.5V3.5C11.2856 3.23478 11.4061 2.98043 11.6204 2.79289C11.8347 2.60536 12.1254 2.5 12.4285 2.5Z" stroke="#B7B7B7" stroke-linecap="round" stroke-linejoin="round"/>
</svg>
