<svg width="32" height="32" viewBox="0 0 32 32" fill="none" xmlns="http://www.w3.org/2000/svg">
<path d="M9.33301 9.33301H12V13.333H9.33301V9.33301ZM14.667 9.33301H17.334V13.333H14.667V9.33301ZM9.33301 14.667H12V18.667H9.33301V14.667ZM14.667 14.667H17.334V18.667H14.667V14.667ZM9.33301 20H12V24H9.33301V20ZM14.667 20H17.334V24H14.667V20Z" fill="white"/>
<path d="M28 26.667V13.867L22.667 11.2V4H4.00001V26.667H1.33301V29.334H30.666V26.667H27.999H28ZM6.66701 26.667V6.667H20V26.667H6.66701ZM22.667 14.133L25.334 15.466V26.666H22.667V14.133Z" fill="white"/>
</svg>
