<svg width="40" height="40" viewBox="0 0 40 40" fill="none" xmlns="http://www.w3.org/2000/svg">
<g clip-path="url(#clip0_951_648)" filter="url(#filter0_d_951_648)">
<path d="M21.7249 2.92023e-06C22.1953 2.92023e-06 22.6161 0.292803 22.7745 0.731203L23.9041 3.8624C24.3089 3.9632 24.6561 4.064 24.9505 4.1696C25.2721 4.2848 25.6865 4.4592 26.1985 4.6976L28.8289 3.3056C29.0436 3.19185 29.2894 3.15079 29.5294 3.18859C29.7694 3.22638 29.9907 3.34098 30.1601 3.5152L32.4737 5.9072C32.7809 6.2256 32.8673 6.6912 32.6945 7.0976L31.4609 9.9888C31.6657 10.3648 31.8289 10.6864 31.9537 10.9552C32.0881 11.248 32.2545 11.6512 32.4529 12.1712L35.3281 13.4032C35.7601 13.5872 36.0273 14.0192 35.9985 14.4816L35.7873 17.8016C35.7729 18.0173 35.6954 18.224 35.5646 18.3961C35.4338 18.5681 35.2553 18.698 35.0513 18.7696L32.3281 19.7376C32.2497 20.1136 32.1681 20.4352 32.0817 20.7072C31.9423 21.1273 31.7832 21.5405 31.6049 21.9456L32.9729 24.9696C33.0695 25.1821 33.0954 25.4199 33.0471 25.6482C32.9987 25.8765 32.8785 26.0833 32.7041 26.2384L30.1025 28.5616C29.9312 28.714 29.7174 28.8103 29.4897 28.8378C29.2621 28.8652 29.0315 28.8225 28.8289 28.7152L26.1473 27.2944C25.7278 27.5165 25.2949 27.7126 24.8513 27.8816L23.6801 28.32L22.6401 31.2C22.563 31.4109 22.424 31.5936 22.2413 31.7241C22.0585 31.8546 21.8406 31.9268 21.6161 31.9312L18.5761 32C18.3456 32.0061 18.119 31.9405 17.9273 31.8124C17.7356 31.6844 17.5883 31.5 17.5057 31.2848L16.2801 28.0416C15.8619 27.8987 15.4479 27.744 15.0385 27.5776C14.7036 27.4327 14.3739 27.2763 14.0497 27.1088L11.0097 28.408C10.8094 28.4935 10.5886 28.5188 10.3741 28.4811C10.1596 28.4433 9.96075 28.344 9.8017 28.1952L7.5521 26.0848C7.38461 25.9284 7.27055 25.7232 7.22605 25.4984C7.18154 25.2736 7.20885 25.0405 7.3041 24.832L8.6113 21.984C8.43745 21.6467 8.27627 21.303 8.1281 20.9536C7.95514 20.526 7.79507 20.0932 7.6481 19.656L4.7841 18.784C4.5513 18.7136 4.34825 18.5684 4.20648 18.3708C4.06472 18.1732 3.99217 17.9343 4.0001 17.6912L4.1121 14.6176C4.12007 14.4171 4.18272 14.2225 4.29326 14.055C4.40381 13.8875 4.55805 13.7534 4.7393 13.6672L7.7441 12.224C7.8833 11.7136 8.0049 11.3168 8.1121 11.0272C8.26305 10.6404 8.43067 10.2603 8.6145 9.888L7.3121 7.136C7.21326 6.92701 7.18325 6.69207 7.22637 6.46494C7.2695 6.23782 7.38354 6.03022 7.5521 5.872L9.7985 3.7504C9.95597 3.60188 10.153 3.50202 10.3659 3.46285C10.5788 3.42368 10.7985 3.44686 10.9985 3.5296L14.0353 4.784C14.3713 4.56 14.6753 4.3792 14.9505 4.2336C15.2785 4.0592 15.7169 3.8768 16.2689 3.68L17.3249 0.734403C17.403 0.518832 17.5457 0.332613 17.7335 0.201173C17.9214 0.0697323 18.1452 -0.000522001 18.3745 2.92023e-06H21.7249ZM20.0385 11.2304C17.3713 11.2304 15.2097 13.3664 15.2097 16.0032C15.2097 18.64 17.3713 20.7776 20.0385 20.7776C22.7041 20.7776 24.8657 18.64 24.8657 16.0032C24.8657 13.3664 22.7057 11.2304 20.0385 11.2304Z" fill="white"/>
</g>
<defs>
<filter id="filter0_d_951_648" x="0" y="0" width="40" height="40" filterUnits="userSpaceOnUse" color-interpolation-filters="sRGB">
<feFlood flood-opacity="0" result="BackgroundImageFix"/>
<feColorMatrix in="SourceAlpha" type="matrix" values="0 0 0 0 0 0 0 0 0 0 0 0 0 0 0 0 0 0 127 0" result="hardAlpha"/>
<feOffset dy="4"/>
<feGaussianBlur stdDeviation="2"/>
<feComposite in2="hardAlpha" operator="out"/>
<feColorMatrix type="matrix" values="0 0 0 0 0 0 0 0 0 0 0 0 0 0 0 0 0 0 0.25 0"/>
<feBlend mode="normal" in2="BackgroundImageFix" result="effect1_dropShadow_951_648"/>
<feBlend mode="normal" in="SourceGraphic" in2="effect1_dropShadow_951_648" result="shape"/>
</filter>
<clipPath id="clip0_951_648">
<rect width="32" height="32" fill="white" transform="translate(4)"/>
</clipPath>
</defs>
</svg>
