<svg width="32" height="32" viewBox="0 0 32 32" fill="none" xmlns="http://www.w3.org/2000/svg">
<path d="M17.7249 2.92023e-06C18.1953 2.92023e-06 18.6161 0.292803 18.7745 0.731203L19.9041 3.8624C20.3089 3.9632 20.6561 4.064 20.9505 4.1696C21.2721 4.2848 21.6865 4.4592 22.1985 4.6976L24.8289 3.3056C25.0436 3.19185 25.2894 3.15079 25.5294 3.18859C25.7694 3.22638 25.9907 3.34098 26.1601 3.5152L28.4737 5.9072C28.7809 6.2256 28.8673 6.6912 28.6945 7.0976L27.4609 9.9888C27.6657 10.3648 27.8289 10.6864 27.9537 10.9552C28.0881 11.248 28.2545 11.6512 28.4529 12.1712L31.3281 13.4032C31.7601 13.5872 32.0273 14.0192 31.9985 14.4816L31.7873 17.8016C31.7729 18.0173 31.6954 18.224 31.5646 18.3961C31.4338 18.5681 31.2553 18.698 31.0513 18.7696L28.3281 19.7376C28.2497 20.1136 28.1681 20.4352 28.0817 20.7072C27.9423 21.1273 27.7832 21.5405 27.6049 21.9456L28.9729 24.9696C29.0695 25.1821 29.0954 25.4199 29.0471 25.6482C28.9987 25.8765 28.8785 26.0833 28.7041 26.2384L26.1025 28.5616C25.9312 28.714 25.7174 28.8103 25.4897 28.8378C25.2621 28.8652 25.0315 28.8225 24.8289 28.7152L22.1473 27.2944C21.7278 27.5165 21.2949 27.7126 20.8513 27.8816L19.6801 28.32L18.6401 31.2C18.563 31.4109 18.424 31.5936 18.2413 31.7241C18.0585 31.8546 17.8406 31.9268 17.6161 31.9312L14.5761 32C14.3456 32.0061 14.119 31.9405 13.9273 31.8124C13.7356 31.6844 13.5883 31.5 13.5057 31.2848L12.2801 28.0416C11.8619 27.8987 11.4479 27.744 11.0385 27.5776C10.7036 27.4327 10.3739 27.2763 10.0497 27.1088L7.0097 28.408C6.80939 28.4935 6.58856 28.5188 6.37409 28.4811C6.15961 28.4433 5.96075 28.344 5.8017 28.1952L3.5521 26.0848C3.38461 25.9284 3.27055 25.7232 3.22605 25.4984C3.18154 25.2736 3.20885 25.0405 3.3041 24.832L4.6113 21.984C4.43745 21.6467 4.27627 21.303 4.1281 20.9536C3.95514 20.526 3.79507 20.0932 3.6481 19.656L0.7841 18.784C0.551301 18.7136 0.348251 18.5684 0.206483 18.3708C0.0647159 18.1732 -0.00783436 17.9343 9.96694e-05 17.6912L0.1121 14.6176C0.120072 14.4171 0.182718 14.2225 0.293264 14.055C0.40381 13.8875 0.558049 13.7534 0.7393 13.6672L3.7441 12.224C3.8833 11.7136 4.0049 11.3168 4.1121 11.0272C4.26305 10.6404 4.43067 10.2603 4.6145 9.888L3.3121 7.136C3.21326 6.92701 3.18325 6.69206 3.22637 6.46494C3.2695 6.23782 3.38354 6.03022 3.5521 5.872L5.7985 3.7504C5.95597 3.60188 6.15301 3.50202 6.3659 3.46285C6.5788 3.42368 6.79847 3.44686 6.9985 3.5296L10.0353 4.784C10.3713 4.56 10.6753 4.3792 10.9505 4.2336C11.2785 4.0592 11.7169 3.8768 12.2689 3.68L13.3249 0.734403C13.403 0.518832 13.5457 0.332613 13.7335 0.201173C13.9214 0.0697323 14.1452 -0.000522001 14.3745 2.92023e-06H17.7249ZM16.0385 11.2304C13.3713 11.2304 11.2097 13.3664 11.2097 16.0032C11.2097 18.64 13.3713 20.7776 16.0385 20.7776C18.7041 20.7776 20.8657 18.64 20.8657 16.0032C20.8657 13.3664 18.7057 11.2304 16.0385 11.2304Z" fill="white"/>
</svg>
